<?xml version="1.0" encoding="UTF-8" standalone="no"?><!DOCTYPE svg PUBLIC "-//W3C//DTD SVG 1.1//EN" "http://www.w3.org/Graphics/SVG/1.1/DTD/svg11.dtd"><svg width="100%" height="100%" viewBox="0 0 400 400" version="1.1" xmlns="http://www.w3.org/2000/svg" xmlns:xlink="http://www.w3.org/1999/xlink" xml:space="preserve" xmlns:serif="http://www.serif.com/" style="fill-rule:evenodd;clip-rule:evenodd;stroke-linecap:round;stroke-linejoin:round;stroke-miterlimit:1.5;"><g id="Box"><path id="box" d="M294.907,200.546l-1,111l-102,58l0,-110.973l103,-58.027Z" style="fill:#642d00;stroke:#fff5eb;stroke-width:0.1px;"/><path id="box1" serif:id="box" d="M88.989,200.546l1,111l102,58l0,-110.973l-103,-58.027Z" style="fill:#ff7800;stroke:#fff5eb;stroke-width:0.1px;"/><path id="box2" serif:id="box" d="M294.907,200.546l-103,58.026l-102.917,-58.026l101.418,-58.554l104.499,58.554Z" style="fill:#ffa000;stroke:#fff5eb;stroke-width:0.1px;"/><path id="tape" d="M131.868,175.851l100.374,59.998l-0.138,29.723l12.052,-16l10.501,2.087l-0.31,-28.264l-102.813,-58.904l-19.666,11.36Z" style="fill:#fcfdff;"/><path id="tape-shadow" serif:id="tape shadow" d="M151.535,164.491l5.021,-2.954l103.467,58.662l-5.674,3.197l-102.814,-58.904Z" style="fill:#fcfdff;fill-opacity:0.38;"/></g><path id="Flipper" d="M96.827,215.031c1.798,-12.06 53.05,-37.322 79.134,-49.972c0.887,7.345 1.369,20.025 -3,25c-7.449,8.483 -13.455,16.359 -7,19c10.798,2.367 22.255,-1.457 34,-8c12.856,-8.684 22.434,-18.721 29,-30c5.686,8.043 7.912,11.065 8,16c0.184,10.352 -1.198,17.387 0,20c2,2 5.063,1.621 9,0c17,-7 29,-28 26,-49c12,1 24.749,2.786 36,6c35,10 63.871,14.679 67,5c6.058,-10.33 -8.994,-26.673 -31,-44c-0.955,-30.01 -18.321,-51.414 -50,-68c-30,-14 -67,-18 -109,-7c-4.933,1.292 -8.44,2.281 -13,0c-30.948,-15.481 -60.822,-30.275 -90,-9c-3.493,2.547 7.446,5.549 14,8c6.49,2.428 11.591,7.869 14,11c10.442,13.571 9.997,25.367 -7,39c-27.919,22.394 -59.559,73.234 -41,189c-12.754,11.765 -23.166,20.777 -34.873,45.694c-5.524,11.757 -2.817,30.513 -2.127,31.306c4.953,-6.999 9.627,-12.378 14,-16c4.465,-3.699 11.072,-7.053 15.791,-7.912c12.186,-2.218 19.209,-4.088 24.209,-14.088c9,9 31.735,7.873 38.945,8.881c10.504,1.469 28.055,17.119 28.055,17.119c2,-12 0,-18 -5,-27c-8.127,-14.629 -25,-22 -45,-36c-12,-6 0.369,-71.694 0.866,-75.028Z" style="fill:#009eff;"/><path id="Box1" serif:id="Box" d="M186.018,379.954l-0.042,-0.024l-31.827,-18.098c-1.19,1.11 -2.612,1.985 -4.199,2.544c-4.123,1.453 -8.711,0.548 -11.974,-2.362c0,0 -5.678,-5.06 -12.257,-9.394c-3.265,-2.151 -6.664,-4.404 -9.474,-4.797c-4.427,-0.619 -14.569,-0.49 -23.967,-2.246c-3.485,-0.651 -6.859,-1.573 -9.981,-2.772c-6.033,5.688 -13.901,8.055 -25.395,10.147c-3.097,0.564 -7.355,2.92 -10.285,5.347c-3.725,3.086 -7.64,7.727 -11.859,13.69c-2.126,3.005 -5.515,4.868 -9.191,5.053c-3.677,0.185 -7.235,-1.327 -9.653,-4.103c-0.504,-0.579 -2.589,-3.373 -3.383,-8.467c-1.08,-6.934 -1.791,-24.143 3.697,-35.824c11.178,-23.792 21.208,-34.202 32.902,-45.075c-17.485,-118.39 17.2,-170.516 46.324,-193.877c5.398,-4.33 8.834,-7.87 9.425,-11.903c0.511,-3.485 -1.562,-6.694 -4.427,-10.418c-1.517,-1.972 -4.607,-5.55 -8.694,-7.079c-4.887,-1.828 -11.798,-4.092 -15.124,-6.139c-2.873,-1.768 -4.637,-3.867 -5.621,-5.6l-1.57,-4.487l-0.124,-2.851l0.523,-2.861l1.831,-3.747l3.219,-3.251c33.146,-24.168 67.283,-9.622 102.438,7.964c0.743,0.372 1.341,-0.061 2.069,-0.232c0.802,-0.189 1.636,-0.412 2.522,-0.644c45.132,-11.82 84.878,-7.31 117.115,7.734c0.166,0.077 0.33,0.158 0.492,0.243c34.189,17.901 53.149,41.178 56.077,72.594c15.382,12.626 26.756,24.991 30.651,34.839c2.988,7.554 2.69,14.375 -0.382,20.257c-2.466,5.872 -8.39,10.781 -18.816,11.946c-12.695,1.418 -35.958,-2.914 -62.392,-10.466c-6.51,-1.86 -13.558,-3.195 -20.645,-4.165c-0.331,2.84 -0.863,5.639 -1.58,8.372l18.333,10.272c3.822,2.142 6.173,6.196 6.134,10.577l-1,111c-0.039,4.277 -2.35,8.209 -6.068,10.323l-101.918,57.953l-0.154,0.041l-0.045,0.025l-5.635,1.502l-0.051,0.001l-0.017,0.018l-0.024,0.006l-0.002,0.006l0.012,0.001l-0.016,0.016l-0.041,-0.011l-0.041,0.011l-0.013,-0.017l0.012,-0.001l-0,-0.005l-0.02,-0.005l-0.015,-0.019l-0.057,-0l-0.067,-0.018l0.121,0.014l-0.009,-0.011l0.044,0.005l0.001,0.009l0.005,0l0.005,-0.005l-0.004,-0.003l0.007,0.001l0.017,-0.017l-0.037,-0.046l-0.054,-0.492l-3.571,-13.506l3.638,2.068l0,0.047l0.041,-0.023l0.041,0.023l0,-0.047l101.917,-57.953l1,-111l-27.182,-15.231c3.874,-8.216 5.597,-17.736 4.236,-27.256c12,1 24.749,2.786 36,6c35,10 63.871,14.679 67,5c6.058,-10.33 -8.994,-26.673 -31,-44c-0.955,-30.01 -18.321,-51.414 -50,-68c-30,-14 -67,-18 -109,-7c-4.933,1.292 -8.44,2.281 -13,0c-30.948,-15.481 -60.822,-30.275 -90,-9c-3.493,2.547 7.446,5.549 14,8c6.49,2.428 11.591,7.869 14,11c10.442,13.571 9.997,25.367 -7,39c-27.919,22.394 -59.559,73.234 -41,189c-12.754,11.765 -23.166,20.777 -34.873,45.694c-5.524,11.757 -2.817,30.513 -2.127,31.306c4.953,-6.999 9.627,-12.378 14,-16c4.465,-3.699 11.072,-7.053 15.791,-7.912c12.186,-2.218 19.209,-4.088 24.209,-14.088c9,9 31.735,7.873 38.945,8.881c10.504,1.469 28.055,17.119 28.055,17.119c0.588,-3.529 0.83,-6.538 0.752,-9.258l35.081,19.948c-0.783,2.426 -0.066,5.086 1.284,7.593c-1.342,-1.346 -2.428,-2.253 -2.873,-2.198c-0.193,-0.02 -0.299,0.09 -0.299,0.357c0,6.455 4.202,9.472 7.633,10.86l-1.522,-0.406Zm11.705,0.042l0.156,-0.042c-3.125,1.777 -5.481,1.617 -5.873,1.575l0.013,-0.014l0.068,-0.018c2.024,-0.03 3.948,-0.566 5.635,-1.502Zm-5.829,1.533c-0.383,0.042 -2.743,0.207 -5.876,-1.575c1.77,0.997 3.764,1.528 5.794,1.544l0.072,0.019l0.009,0.011Zm-0.149,-0.048c-0.521,-0.065 -2.236,-0.324 -4.205,-1.121l0.25,0.067c-3.46,-1.356 -7.801,-4.366 -7.801,-10.927c0,-0.226 0.076,-0.339 0.217,-0.357c0.51,0.053 1.625,1.016 2.973,2.383l-0.101,-0.185c3.277,3.285 8.084,9.184 8.816,10.087l0.006,0.055l-0.13,-0.106l0.086,0.107l-0.195,-0.026l0.083,0.022Zm0.156,0.009l-0.001,-0.005l0.008,0.006l-0.007,-0.001Zm0.053,0.012l-0.001,-0.001l-0.014,0.014l0.01,0.008l0.005,-0.021Z" style="fill:#fff;"/><path d="M91.14,258.572c-3.243,-23.547 -10.103,-89 49.75,-110.67c19.366,-7.012 24.738,-7.552 29.534,-5.91c2.445,0.837 5.538,23.067 5.538,23.067c0,0 -63.758,34.011 -72.904,41.522c-9.906,8.135 -12.851,58.625 -11.918,51.991Z" style="fill:#57bfff;"/><path d="M271.961,158.059l-4.821,-16.067l105.419,30.082c-3.231,2.682 -11.684,2.827 -20.831,1.682c-10.399,-1.301 -17.06,-2.443 -52.998,-11.966c-9.718,-1.822 -18.862,-3.226 -26.769,-3.731Z" style="fill:#57bfff;"/><path d="M298.73,161.79l-26.769,-3.731" style="fill:none;"/></svg>