<?xml version="1.0" encoding="UTF-8" standalone="no"?>
<!DOCTYPE svg PUBLIC "-//W3C//DTD SVG 1.1//EN" "http://www.w3.org/Graphics/SVG/1.1/DTD/svg11.dtd">
<svg width="100%" height="100%" viewBox="0 0 400 400" version="1.1" xmlns="http://www.w3.org/2000/svg" xmlns:xlink="http://www.w3.org/1999/xlink" xml:space="preserve" xmlns:serif="http://www.serif.com/" style="fill-rule:evenodd;clip-rule:evenodd;stroke-linecap:round;stroke-linejoin:round;stroke-miterlimit:1.5;">
    <g id="Box" transform="matrix(1,0,0,1,-52.34301,-81.428318)">
        <g id="box" transform="matrix(1.078947,0,0,1.00885,-80.513158,173.540366)">
            <path d="M396.463,107.482L395.537,217.509L301,275L301,165L396.463,107.482Z" style="fill:rgb(100,45,0);stroke:rgb(255,245,235);stroke-width:0.1px;"/>
        </g>
        <g id="box1" serif:id="box" transform="matrix(-1.078947,0,0,1.00885,569.095658,173.540366)">
            <path d="M396.463,107.482L395.537,217.509L301,275L301,165L396.463,107.482Z" style="fill:rgb(255,120,0);stroke:rgb(255,245,235);stroke-width:0.1px;"/>
        </g>
        <g id="box2" serif:id="box" transform="matrix(0.539149,0.933833,-0.921984,0.532308,232.594307,-145.494446)">
            <path d="M396.483,107.494L395.325,218.533L301,275L301,165L396.483,107.494Z" style="fill:rgb(255,160,0);stroke:rgb(255,245,235);stroke-width:0.09px;"/>
        </g>
        <path id="tape" d="M184.211,257.279L284.586,317.277L284.448,347L296.5,331L307.001,333.087L306.691,304.823L203.878,245.919L184.211,257.279Z" style="fill:rgb(252,253,255);"/>
        <path id="tape-shadow" serif:id="tape shadow" d="M203.878,245.919L208.898,242.965L312.366,301.627L306.691,304.823L203.878,245.919Z" style="fill:rgb(252,253,255);fill-opacity:0.38;"/>
    </g>
    <g id="Flipper">
        <g id="Body" transform="matrix(1,0,0,1,-55.038579,-72.941166)">
            <path d="M151.866,287.972C153.664,275.912 204.916,250.65 231,238C231.887,245.345 232.369,258.025 228,263C220.551,271.483 214.545,279.359 221,282C231.798,284.367 243.255,280.543 255,274C267.856,265.316 277.434,255.279 284,244C289.686,252.043 291.912,255.065 292,260C292.184,270.352 290.802,277.387 292,280C294,282 297.063,281.621 301,280C318,273 330,252 327,231C339,232 351.749,233.786 363,237C398,247 426.871,251.679 430,242C436.058,231.67 421.006,215.327 399,198C398.045,167.99 380.679,146.586 349,130C319,116 282,112 240,123C235.067,124.292 231.56,125.281 227,123C196.052,107.519 166.178,92.725 137,114C133.507,116.547 144.446,119.549 151,122C157.49,124.428 162.591,129.869 165,133C175.442,146.571 174.997,158.367 158,172C130.081,194.394 98.441,245.234 117,361C104.246,372.765 93.834,381.777 82.127,406.694C76.603,418.451 79.31,437.207 80,438C84.953,431.001 89.627,425.622 94,422C98.465,418.301 105.072,414.947 109.791,414.088C121.977,411.87 129,410 134,400C143,409 165.735,407.873 172.945,408.881C183.449,410.351 201,426 201,426C203,414 201,408 196,399C187.873,384.371 171,377 151,363C139,357 151.369,291.306 151.866,287.972Z" style="fill:rgb(0,158,255);"/>
        </g>
        <g id="Light2" transform="matrix(1,0,0,1,17.189503,23.954323)">
            <path d="M73.95,234.617C70.707,211.071 63.847,145.618 123.7,123.947C143.066,116.935 148.437,116.395 153.234,118.038C155.679,118.875 158.772,141.105 158.772,141.105C158.772,141.105 95.014,175.116 85.868,182.627C75.962,190.762 73.017,241.252 73.95,234.617Z" style="fill:rgb(87,191,255);"/>
        </g>
        <g id="Light" transform="matrix(1,0,0,1,17.189503,23.954323)">
            <path d="M254.772,134.105L249.951,118.038L355.37,148.119C352.138,150.801 343.686,150.946 334.538,149.801C324.139,148.5 317.479,147.358 281.541,137.835C271.823,136.014 262.678,134.609 254.772,134.105Z" style="fill:rgb(87,191,255);"/>
        </g>
    </g>
    <g id="Outline" transform="matrix(1,0,0,1,-52.34301,-81.428318)">
        <path d="M230.185,118.775C230.922,118.615 232.631,118.239 233.757,117.944C279.412,105.987 319.615,110.583 352.225,125.801C352.418,125.891 352.609,125.985 352.798,126.084C387.398,144.2 406.626,167.776 409.859,199.435C425.237,212.155 436.534,224.634 440.458,234.553C443.678,242.695 443.321,250.047 440.029,256.394C437.323,262.78 430.946,268.214 419.622,269.479C406.772,270.915 383.214,266.593 356.458,258.948C350.645,257.287 344.396,256.052 338.078,255.123C337.82,256.846 337.49,258.551 337.092,260.235L354.093,269.761C358.552,272.259 361.295,276.989 361.249,282.1L360.249,393.1C360.204,398.089 357.508,402.678 353.17,405.144L251.253,463.097C249.144,464.296 246.759,464.927 244.332,464.927L244.25,464.927C241.824,464.927 239.439,464.296 237.33,463.097L206.708,445.685C205.583,446.529 204.322,447.21 202.956,447.692C198.146,449.386 192.794,448.331 188.987,444.936C188.987,444.936 183.416,439.973 176.961,435.72C173.964,433.746 170.889,431.594 168.31,431.234C163.866,430.612 153.686,430.736 144.253,428.973C141.086,428.381 138.009,427.569 135.117,426.537C128.963,431.886 121.005,434.273 109.603,436.349C106.776,436.864 102.91,439.053 100.235,441.269C96.618,444.265 92.83,448.784 88.732,454.574C86.252,458.08 82.299,460.253 78.009,460.469C73.72,460.686 69.569,458.921 66.748,455.683C66.183,455.034 63.787,451.923 62.897,446.21C61.782,439.051 61.094,421.288 66.76,409.228C77.848,385.629 87.811,375.029 99.341,364.255C82.041,245.428 117.221,193.087 146.545,169.566C151.429,165.649 154.707,162.583 155.242,158.933C155.683,155.923 153.684,153.242 151.209,150.025C149.84,148.246 147.086,144.979 143.399,143.6C138.397,141.728 131.332,139.386 127.928,137.291C124.695,135.302 122.724,132.926 121.616,130.976L119.809,125.809L119.666,122.516L120.27,119.211L122.38,114.891L126.056,111.175C159.744,86.612 194.462,100.926 230.185,118.775ZM320.068,266.743C323.942,258.527 325.664,249.007 324.304,239.487C336.304,240.487 349.054,242.273 360.304,245.487C395.304,255.487 424.175,260.167 427.304,250.487C433.363,240.158 418.311,223.814 396.304,206.487C395.349,176.477 377.984,155.074 346.304,138.487C316.304,124.487 279.304,120.487 237.304,131.487C232.372,132.779 228.865,133.768 224.304,131.487C193.357,116.006 163.483,101.212 134.304,122.487C130.811,125.034 141.751,128.036 148.304,130.487C154.795,132.915 159.895,138.356 162.304,141.487C172.747,155.058 172.301,166.854 155.304,180.487C127.385,202.881 95.745,253.721 114.304,369.487C101.55,381.252 91.138,390.264 79.431,415.181C73.907,426.938 76.614,445.694 77.304,446.487C82.257,439.488 86.932,434.109 91.304,430.487C95.77,426.788 102.376,423.434 107.095,422.575C119.281,420.357 126.304,418.487 131.304,408.487C140.304,417.487 163.039,416.36 170.249,417.368C180.754,418.838 198.304,434.487 198.304,434.487C198.893,430.959 199.135,427.949 199.057,425.229L244.25,450.927L244.332,450.927L346.25,392.974L347.25,281.974L320.068,266.743Z"/>
    </g>
</svg>
