<?xml version="1.0" encoding="UTF-8" standalone="no"?><!DOCTYPE svg PUBLIC "-//W3C//DTD SVG 1.1//EN" "http://www.w3.org/Graphics/SVG/1.1/DTD/svg11.dtd"><svg width="100%" height="100%" viewBox="0 0 400 400" version="1.1" xmlns="http://www.w3.org/2000/svg" xmlns:xlink="http://www.w3.org/1999/xlink" xml:space="preserve" xmlns:serif="http://www.serif.com/" style="fill-rule:evenodd;clip-rule:evenodd;stroke-linecap:round;stroke-linejoin:round;stroke-miterlimit:1.5;"><g id="Box"><path id="box" d="M294.907,200.546l-1,111l-102,58l0,-110.973l103,-58.027Z" style="fill:#642d00;stroke:#fff5eb;stroke-width:0.1px;"/><path id="box1" serif:id="box" d="M88.989,200.546l1,111l102,58l0,-110.973l-103,-58.027Z" style="fill:#ff7800;stroke:#fff5eb;stroke-width:0.1px;"/><path id="box2" serif:id="box" d="M294.907,200.546l-103,58.026l-102.917,-58.026l101.418,-58.554l104.499,58.554Z" style="fill:#ffa000;stroke:#fff5eb;stroke-width:0.1px;"/><path id="tape" d="M131.868,175.851l100.374,59.998l-0.138,29.723l12.052,-16l10.501,2.087l-0.31,-28.264l-102.813,-58.904l-19.666,11.36Z" style="fill:#fcfdff;"/><path id="tape-shadow" serif:id="tape shadow" d="M151.535,164.491l5.021,-2.954l103.467,58.662l-5.674,3.197l-102.814,-58.904Z" style="fill:#fcfdff;fill-opacity:0.38;"/></g><path id="Flipper" d="M96.827,215.031c1.798,-12.06 53.05,-37.322 79.134,-49.972c0.887,7.345 1.369,20.025 -3,25c-7.449,8.483 -13.455,16.359 -7,19c10.798,2.367 22.255,-1.457 34,-8c12.856,-8.684 22.434,-18.721 29,-30c5.686,8.043 7.912,11.065 8,16c0.184,10.352 -1.198,17.387 0,20c2,2 5.063,1.621 9,0c17,-7 29,-28 26,-49c12,1 24.749,2.786 36,6c35,10 63.871,14.679 67,5c6.058,-10.33 -8.994,-26.673 -31,-44c-0.955,-30.01 -18.321,-51.414 -50,-68c-30,-14 -67,-18 -109,-7c-4.933,1.292 -8.44,2.281 -13,0c-30.948,-15.481 -60.822,-30.275 -90,-9c-3.493,2.547 7.446,5.549 14,8c6.49,2.428 11.591,7.869 14,11c10.442,13.571 9.997,25.367 -7,39c-27.919,22.394 -59.559,73.234 -41,189c-12.754,11.765 -23.166,20.777 -34.873,45.694c-5.524,11.757 -2.817,30.513 -2.127,31.306c4.953,-6.999 9.627,-12.378 14,-16c4.465,-3.699 11.072,-7.053 15.791,-7.912c12.186,-2.218 19.209,-4.088 24.209,-14.088c9,9 31.735,7.873 38.945,8.881c10.504,1.469 28.055,17.119 28.055,17.119c2,-12 0,-18 -5,-27c-8.127,-14.629 -25,-22 -45,-36c-12,-6 0.369,-71.694 0.866,-75.028Z" style="fill:#009eff;"/><path id="Box1" serif:id="Box" d="M185.523,380.824l-0.042,-0.024l-31.207,-17.745c-1.168,0.971 -2.514,1.745 -3.993,2.266c-4.467,1.574 -9.437,0.594 -12.972,-2.558c0,0 -5.624,-5.012 -12.142,-9.305c-3.131,-2.063 -6.368,-4.265 -9.063,-4.642c-4.435,-0.62 -14.596,-0.494 -24.012,-2.253c-3.323,-0.621 -6.548,-1.486 -9.555,-2.599c-6.095,5.512 -14.009,7.89 -25.457,9.974c-2.962,0.539 -7.024,2.812 -9.826,5.134c-3.671,3.041 -7.522,7.621 -11.681,13.498c-2.304,3.255 -5.974,5.273 -9.957,5.474c-3.983,0.201 -7.838,-1.438 -10.457,-4.445c-0.535,-0.614 -2.775,-3.566 -3.617,-8.97c-1.098,-7.047 -1.797,-24.533 3.78,-36.403c11.133,-23.696 21.13,-34.202 32.741,-45.024c-17.392,-118.608 17.54,-170.842 46.764,-194.283c5.141,-4.124 8.498,-7.427 9.061,-11.268c0.476,-3.247 -1.56,-6.193 -4.23,-9.664c-1.443,-1.875 -4.365,-5.298 -8.252,-6.752c-4.945,-1.85 -11.933,-4.153 -15.297,-6.223c-3.053,-1.879 -4.921,-4.116 -5.966,-5.957l-1.689,-4.827l-0.133,-3.072l0.563,-3.083l1.97,-4.034l3.448,-3.484c33.477,-24.409 67.968,-9.884 103.475,7.878c0.509,0.255 0.894,-0.194 1.392,-0.311c0.794,-0.187 1.621,-0.408 2.499,-0.638c45.393,-11.889 85.367,-7.336 117.791,7.795c0.179,0.084 0.357,0.172 0.532,0.263c34.394,18.008 53.488,41.435 56.569,72.972c15.38,12.672 26.715,25.095 30.624,34.978c3.104,7.846 2.777,14.932 -0.404,21.046c-2.585,6.13 -8.736,11.304 -19.613,12.519c-12.772,1.427 -36.183,-2.9 -62.778,-10.498c-6.159,-1.76 -12.804,-3.046 -19.504,-3.996c-0.305,2.281 -0.736,4.533 -1.287,6.745l17.663,9.897c4.14,2.32 6.688,6.712 6.645,11.458l-1,111c-0.042,4.633 -2.546,8.894 -6.574,11.184l-101.918,57.953l-0.153,0.041l-0.045,0.025l-6.13,1.632l-0.051,0.001l-0.017,0.018l-0.024,0.006l-0.002,0.006l0.012,0.001l-0.016,0.016l-0.041,-0.011l-0.041,0.011l-0.013,-0.017l0.012,-0.001l-0,-0.005l-0.02,-0.005l-0.015,-0.019l-0.057,-0l-0.066,-0.018l0.12,0.014l-0.008,-0.01l0.044,0.005l0.001,0.009l0.005,0l0.005,-0.005l-0.004,-0.003l0.007,0.001l0.017,-0.017l-0.037,-0.046l-0.054,-0.492l-3.883,-14.683l3.949,2.245l0,0.047l0.041,-0.023l0.041,0.023l0,-0.047l101.917,-57.953l1,-111l-27.182,-15.231c3.874,-8.216 5.597,-17.736 4.236,-27.256c12,1 24.749,2.786 36,6c35,10 63.871,14.679 67,5c6.058,-10.33 -8.994,-26.673 -31,-44c-0.955,-30.01 -18.321,-51.414 -50,-68c-30,-14 -67,-18 -109,-7c-4.933,1.292 -8.44,2.281 -13,0c-30.948,-15.481 -60.822,-30.275 -90,-9c-3.493,2.547 7.446,5.549 14,8c6.49,2.428 11.591,7.869 14,11c10.442,13.571 9.997,25.367 -7,39c-27.919,22.394 -59.559,73.234 -41,189c-12.754,11.765 -23.166,20.777 -34.873,45.694c-5.524,11.757 -2.817,30.513 -2.127,31.306c4.953,-6.999 9.627,-12.378 14,-16c4.465,-3.699 11.072,-7.053 15.791,-7.912c12.186,-2.218 19.209,-4.088 24.209,-14.088c9,9 31.735,7.873 38.945,8.881c10.504,1.469 28.055,17.119 28.055,17.119c0.588,-3.529 0.83,-6.538 0.752,-9.258l34.235,19.467c-0.849,2.631 -0.07,5.517 1.396,8.236c-1.455,-1.459 -2.633,-2.444 -3.118,-2.39c-0.207,-0.02 -0.321,0.099 -0.321,0.387c0,6.988 4.545,10.256 8.26,11.761l-1.643,-0.438Zm12.694,0.042l0.156,-0.042c-3.399,1.933 -5.957,1.751 -6.367,1.706l0.014,-0.014l0.068,-0.018c2.202,-0.03 4.296,-0.614 6.13,-1.632Zm-6.323,1.664c-0.401,0.044 -2.964,0.232 -6.37,-1.705c1.92,1.083 4.085,1.659 6.289,1.675l0.072,0.019l0.009,0.011Zm-0.148,-0.048c-0.548,-0.067 -2.424,-0.347 -4.579,-1.22l0.248,0.066c-3.744,-1.474 -8.425,-4.735 -8.425,-11.827c0,-0.247 0.084,-0.369 0.238,-0.387c0.55,0.053 1.757,1.094 3.218,2.575l-0.101,-0.185c3.562,3.572 8.784,9.982 9.549,10.925l0.006,0.055l-0.129,-0.106l0.086,0.106l-0.192,-0.025l0.081,0.021Zm0.155,0.009l-0.001,-0.006l0.008,0.006l-0.007,-0.001Zm0.053,0.012l-0.001,-0.001l-0.014,0.014l0.01,0.008l0.005,-0.021Z"/><path d="M91.14,258.572c-3.243,-23.547 -10.103,-89 49.75,-110.67c19.366,-7.012 24.738,-7.552 29.534,-5.91c2.445,0.837 5.538,23.067 5.538,23.067c0,0 -63.758,34.011 -72.904,41.522c-9.906,8.135 -12.851,58.625 -11.918,51.991Z" style="fill:#57bfff;"/><path d="M271.961,158.059l-4.821,-16.067l105.419,30.082c-3.231,2.682 -11.684,2.827 -20.831,1.682c-10.399,-1.301 -17.06,-2.443 -52.998,-11.966c-9.718,-1.822 -18.862,-3.226 -26.769,-3.731Z" style="fill:#57bfff;"/><path d="M298.73,161.79l-26.769,-3.731" style="fill:none;"/></svg>